<?xml version="1.0" encoding="utf-8"?>
<svg xmlns="http://www.w3.org/2000/svg" style="margin: auto; display: block; shape-rendering: auto; background: none;" width="272" height="245" preserveAspectRatio="xMidYMid">
<style type="text/css">
  text {
    text-anchor: middle; font-size: 34px; opacity: 0;
  }
</style>
<g style="transform-origin:136px 122.5px;transform:scale(1)">
<g transform="translate(136,122.5)">
  <g transform="translate(0,0)"><g class="path" style="transform: rotateY(0deg); transform-origin: -82.39px -2.3695px; animation: 2.43902s linear -1.40854s infinite normal forwards running flip-h-59bb20a2-14e1-4330-8eb7-c49066989534;"><path d="M12.93 0L7.47-17.83L5.61 0L1.54 0L5.61-23.91L11.64-23.91L17.23-5.66L22.89-23.91L28.92-23.91L32.31 0L25.60 0L23.62-17.37L18.96 0L12.93 0" fill="#4b6bfb" stroke="none" stroke-width="none" transform="translate(-99.31497192382812,9.585499420166016)" style="fill: rgb(75, 107, 251);"></path></g><g class="path" style="transform: rotateY(0deg); transform-origin: -54.075px -2.3695px; animation: 2.43902s linear -1.20732s infinite normal forwards running flip-h-59bb20a2-14e1-4330-8eb7-c49066989534;"><path d="M53.82-3.05L53.82 0L36.66 0L36.66-23.91L53.82-23.91L53.82-20.85L43.25-20.85L43.25-13.46L51.42-13.46L51.42-10.43L43.25-10.43L43.25-3.05L53.82-3.05" fill="#4b6bfb" stroke="none" stroke-width="none" transform="translate(-99.31497192382812,9.585499420166016)" style="fill: rgb(75, 107, 251);"></path></g><g class="path" style="transform: rotateY(0deg); transform-origin: -33.65px -2.3695px; animation: 2.43902s linear -1.0061s infinite normal forwards running flip-h-59bb20a2-14e1-4330-8eb7-c49066989534;"><path d="M68.96-20.85L68.96 0L62.37 0L62.37-20.85L55.86-20.85L55.86-23.91L75.47-23.91L75.47-20.85L68.96-20.85" fill="#4b6bfb" stroke="none" stroke-width="none" transform="translate(-99.31497192382812,9.585499420166016)" style="fill: rgb(75, 107, 251);"></path></g><g class="path" style="transform: rotateY(0deg); transform-origin: -10.7629px -0.0845003px; animation: 2.43902s linear -0.804878s infinite normal forwards running flip-h-59bb20a2-14e1-4330-8eb7-c49066989534;"><path d="M100.07-11.44L100.07-11.44L100.07-11.12L100.07-11.12Q100.04-9.73 99.78-8.23L99.78-8.23L99.78-8.23Q99.53-6.74 99.06-5.25L99.06-5.25L99.06-5.25Q98.60-3.75 97.95-2.29L97.95-2.29L97.95-2.29Q97.30-0.83 96.50 0.51L96.50 0.51L96.50 0.51Q95.69 1.84 94.76 3.01L94.76 3.01L94.76 3.01Q93.83 4.18 92.80 5.08L92.80 5.08L90.33 3.65L90.33 3.65Q90.91 2.67 91.38 1.52L91.38 1.52L91.38 1.52Q91.86 0.37 92.24-0.90L92.24-0.90L92.24-0.90Q92.62-2.16 92.89-3.49L92.89-3.49L92.89-3.49Q93.17-4.81 93.35-6.13L93.35-6.13L93.35-6.13Q93.53-7.44 93.62-8.71L93.62-8.71L93.62-8.71Q93.72-9.98 93.72-11.12L93.72-11.12L93.72-11.12Q93.72-12.02 93.71-13.16L93.71-13.16L93.71-13.16Q93.70-14.29 93.57-15.47L93.57-15.47L93.57-15.47Q93.45-16.65 93.17-17.77L93.17-17.77L93.17-17.77Q92.89-18.89 92.33-19.77L92.33-19.77L92.33-19.77Q91.77-20.65 90.90-21.18L90.90-21.18L90.90-21.18Q90.03-21.71 88.74-21.71L88.74-21.71L88.74-21.71Q87.59-21.71 86.77-21.32L86.77-21.32L86.77-21.32Q85.95-20.93 85.37-20.28L85.37-20.28L85.37-20.28Q84.80-19.62 84.46-18.76L84.46-18.76L84.46-18.76Q84.12-17.90 83.93-16.94L83.93-16.94L83.93-16.94Q83.74-15.99 83.68-15.02L83.68-15.02L83.68-15.02Q83.62-14.04 83.62-13.18L83.62-13.18L83.62-8.55L90.78-8.55L90.78-5.81L83.62-5.81L83.62 0L77.03 0L77.03-12.15L77.03-12.15Q77.03-14.76 77.86-17L77.86-17L77.86-17Q78.69-19.24 80.21-20.89L80.21-20.89L80.21-20.89Q81.73-22.54 83.86-23.48L83.86-23.48L83.86-23.48Q86.00-24.42 88.62-24.42L88.62-24.42L88.62-24.42Q90.40-24.42 91.95-23.91L91.95-23.91L91.95-23.91Q93.50-23.41 94.78-22.52L94.78-22.52L94.78-22.52Q96.06-21.63 97.06-20.41L97.06-20.41L97.06-20.41Q98.07-19.19 98.74-17.75L98.74-17.75L98.74-17.75Q99.41-16.30 99.76-14.69L99.76-14.69L99.76-14.69Q100.11-13.08 100.07-11.44" fill="#4b6bfb" stroke="none" stroke-width="none" transform="translate(-99.31497192382812,9.585499420166016)" style="fill: rgb(75, 107, 251);"></path></g><g class="path" style="transform: rotateY(0deg); transform-origin: 16.05px -2.3695px; animation: 2.43902s linear -0.603659s infinite normal forwards running flip-h-59bb20a2-14e1-4330-8eb7-c49066989534;"><path d="M126.37-6.49L126.37-6.49L126.37-6.49Q126.37-5.48 126.04-4.60L126.04-4.60L126.04-4.60Q125.71-3.72 125.13-3.00L125.13-3.00L125.13-3.00Q124.54-2.27 123.77-1.71L123.77-1.71L123.77-1.71Q123.00-1.15 122.11-0.76L122.11-0.76L122.11-0.76Q121.22-0.38 120.28-0.19L120.28-0.19L120.28-0.19Q119.33 0 118.42 0L118.42 0L104.36 0L104.36-23.91L117.21-23.91L117.21-23.91Q118.05-23.91 118.98-23.78L118.98-23.78L118.98-23.78Q119.91-23.66 120.80-23.39L120.80-23.39L120.80-23.39Q121.69-23.13 122.49-22.69L122.49-22.69L122.49-22.69Q123.30-22.26 123.91-21.64L123.91-21.64L123.91-21.64Q124.51-21.02 124.87-20.20L124.87-20.20L124.87-20.20Q125.23-19.39 125.23-18.34L125.23-18.34L125.23-18.34Q125.23-17.35 124.83-16.54L124.83-16.54L124.83-16.54Q124.43-15.72 123.76-15.08L123.76-15.08L123.76-15.08Q123.08-14.44 122.21-13.95L122.21-13.95L122.21-13.95Q121.34-13.46 120.38-13.10L120.38-13.10L120.38-13.10Q121.59-12.77 122.68-12.22L122.68-12.22L122.68-12.22Q123.76-11.67 124.59-10.87L124.59-10.87L124.59-10.87Q125.41-10.08 125.89-8.99L125.89-8.99L125.89-8.99Q126.37-7.90 126.37-6.49zM118.54-17.76L118.54-17.76L118.54-17.76Q118.54-19.79 117.46-20.72L117.46-20.72L117.46-20.72Q116.39-21.65 114.42-21.65L114.42-21.65L110.95-21.65L110.95-13.90L113.85-13.90L113.85-13.90Q114.75-13.90 115.60-14.12L115.60-14.12L115.60-14.12Q116.44-14.34 117.10-14.82L117.10-14.82L117.10-14.82Q117.75-15.29 118.15-16.02L118.15-16.02L118.15-16.02Q118.54-16.75 118.54-17.76zM119.70-6.91L119.70-6.91L119.70-6.91Q119.70-7.89 119.45-8.74L119.45-8.74L119.45-8.74Q119.20-9.60 118.68-10.22L118.68-10.22L118.68-10.22Q118.17-10.84 117.40-11.20L117.40-11.20L117.40-11.20Q116.63-11.55 115.58-11.55L115.58-11.55L110.95-11.55L110.95-2.32L115.00-2.32L115.00-2.32Q116.01-2.32 116.88-2.66L116.88-2.66L116.88-2.66Q117.74-2.99 118.37-3.59L118.37-3.59L118.37-3.59Q119-4.18 119.35-5.03L119.35-5.03L119.35-5.03Q119.70-5.88 119.70-6.91" fill="#4b6bfb" stroke="none" stroke-width="none" transform="translate(-99.31497192382812,9.585499420166016)" style="fill: rgb(75, 107, 251);"></path></g><g class="path" style="transform: rotateY(0deg); transform-origin: 39.575px -2.3695px; animation: 2.43902s linear -0.402439s infinite normal forwards running flip-h-59bb20a2-14e1-4330-8eb7-c49066989534;"><path d="M147.47-3.04L147.47 0L130.31 0L130.31-23.91L136.90-23.91L136.90-3.04L147.47-3.04" fill="#4b6bfb" stroke="none" stroke-width="none" transform="translate(-99.31497192382812,9.585499420166016)" style="fill: rgb(75, 107, 251);"></path></g><g class="path" style="transform: rotateY(0deg); transform-origin: 61.905px -2.4095px; animation: 2.43902s linear -0.20122s infinite normal forwards running flip-h-59bb20a2-14e1-4330-8eb7-c49066989534;"><path d="M174.35-11.99L174.35-11.99L174.35-11.99Q174.35-9.10 173.35-6.78L173.35-6.78L173.35-6.78Q172.36-4.47 170.60-2.86L170.60-2.86L170.60-2.86Q168.84-1.25 166.43-0.38L166.43-0.38L166.43-0.38Q164.02 0.48 161.22 0.48L161.22 0.48L161.22 0.48Q158.41 0.48 156.00-0.38L156.00-0.38L156.00-0.38Q153.60-1.25 151.84-2.86L151.84-2.86L151.84-2.86Q150.08-4.47 149.08-6.78L149.08-6.78L149.08-6.78Q148.09-9.10 148.09-11.99L148.09-11.99L148.09-11.99Q148.09-14.92 149.07-17.24L149.07-17.24L149.07-17.24Q150.06-19.56 151.81-21.16L151.81-21.16L151.81-21.16Q153.56-22.76 155.97-23.62L155.97-23.62L155.97-23.62Q158.38-24.47 161.22-24.47L161.22-24.47L161.22-24.47Q164.06-24.47 166.46-23.62L166.46-23.62L166.46-23.62Q168.87-22.76 170.62-21.16L170.62-21.16L170.62-21.16Q172.37-19.56 173.36-17.24L173.36-17.24L173.36-17.24Q174.35-14.92 174.35-11.99zM167.64-11.99L167.64-11.99L167.64-11.99Q167.64-13.08 167.54-14.23L167.54-14.23L167.54-14.23Q167.44-15.37 167.18-16.45L167.18-16.45L167.18-16.45Q166.91-17.53 166.46-18.48L166.46-18.48L166.46-18.48Q166.00-19.42 165.29-20.13L165.29-20.13L165.29-20.13Q164.57-20.83 163.57-21.24L163.57-21.24L163.57-21.24Q162.56-21.65 161.22-21.65L161.22-21.65L161.22-21.65Q159.86-21.65 158.84-21.24L158.84-21.24L158.84-21.24Q157.83-20.83 157.12-20.14L157.12-20.14L157.12-20.14Q156.40-19.44 155.96-18.49L155.96-18.49L155.96-18.49Q155.51-17.55 155.25-16.48L155.25-16.48L155.25-16.48Q154.99-15.41 154.89-14.25L154.89-14.25L154.89-14.25Q154.79-13.10 154.79-11.99L154.79-11.99L154.79-11.99Q154.79-10.89 154.89-9.75L154.89-9.75L154.89-9.75Q154.99-8.60 155.26-7.53L155.26-7.53L155.26-7.53Q155.52-6.46 155.98-5.51L155.98-5.51L155.98-5.51Q156.44-4.57 157.15-3.86L157.15-3.86L157.15-3.86Q157.86-3.15 158.87-2.74L158.87-2.74L158.87-2.74Q159.87-2.32 161.22-2.32L161.22-2.32L161.22-2.32Q162.53-2.32 163.51-2.75L163.51-2.75L163.51-2.75Q164.49-3.17 165.20-3.89L165.20-3.89L165.20-3.89Q165.92-4.62 166.39-5.57L166.39-5.57L166.39-5.57Q166.86-6.52 167.14-7.60L167.14-7.60L167.14-7.60Q167.41-8.67 167.53-9.79L167.53-9.79L167.53-9.79Q167.64-10.92 167.64-11.99" fill="#4b6bfb" stroke="none" stroke-width="none" transform="translate(-99.31497192382812,9.585499420166016)" style="fill: rgb(75, 107, 251);"></path></g><g class="path" style="transform: rotateY(0deg); transform-origin: 89.315px -2.4095px; animation: 2.43902s linear 0s infinite normal forwards running flip-h-59bb20a2-14e1-4330-8eb7-c49066989534;"><path d="M200.17-17.98L200.17-17.98L197.33-16.78L197.33-16.78Q196.99-17.86 196.44-18.76L196.44-18.76L196.44-18.76Q195.88-19.66 195.11-20.30L195.11-20.30L195.11-20.30Q194.34-20.93 193.36-21.29L193.36-21.29L193.36-21.29Q192.38-21.65 191.22-21.65L191.22-21.65L191.22-21.65Q189.97-21.65 188.93-21.23L188.93-21.23L188.93-21.23Q187.90-20.82 187.07-20.11L187.07-20.11L187.07-20.11Q186.25-19.41 185.64-18.46L185.64-18.46L185.64-18.46Q185.02-17.51 184.62-16.44L184.62-16.44L184.62-16.44Q184.21-15.37 184.00-14.23L184.00-14.23L184.00-14.23Q183.80-13.08 183.80-11.99L183.80-11.99L183.80-11.99Q183.80-10.24 184.20-8.52L184.20-8.52L184.20-8.52Q184.61-6.79 185.50-5.41L185.50-5.41L185.50-5.41Q186.39-4.03 187.80-3.18L187.80-3.18L187.80-3.18Q189.21-2.32 191.22-2.32L191.22-2.32L191.22-2.32Q192.31-2.32 192.93-2.81L192.93-2.81L192.93-2.81Q193.54-3.30 193.54-4.53L193.54-4.53L193.54-11.87L200.13-11.87L200.13 0L198.22 0L197.06-1.88L197.06-1.88Q195.47-0.66 193.55-0.09L193.55-0.09L193.55-0.09Q191.63 0.48 189.64 0.48L189.64 0.48L189.64 0.48Q187.88 0.48 186.26 0.05L186.26 0.05L186.26 0.05Q184.64-0.38 183.25-1.18L183.25-1.18L183.25-1.18Q181.85-1.98 180.72-3.10L180.72-3.10L180.72-3.10Q179.58-4.23 178.77-5.61L178.77-5.61L178.77-5.61Q177.97-6.99 177.53-8.61L177.53-8.61L177.53-8.61Q177.09-10.23 177.09-11.99L177.09-11.99L177.09-11.99Q177.09-13.75 177.53-15.36L177.53-15.36L177.53-15.36Q177.97-16.98 178.77-18.37L178.77-18.37L178.77-18.37Q179.58-19.76 180.72-20.88L180.72-20.88L180.72-20.88Q181.85-22.01 183.25-22.81L183.25-22.81L183.25-22.81Q184.64-23.61 186.26-24.04L186.26-24.04L186.26-24.04Q187.88-24.47 189.64-24.47L189.64-24.47L189.64-24.47Q191.33-24.47 192.95-24.07L192.95-24.07L192.95-24.07Q194.57-23.67 195.96-22.87L195.96-22.87L195.96-22.87Q197.36-22.06 198.45-20.84L198.45-20.84L198.45-20.84Q199.53-19.62 200.17-17.98" fill="#4b6bfb" stroke="none" stroke-width="none" transform="translate(-99.31497192382812,9.585499420166016)" style="fill: rgb(75, 107, 251);"></path></g></g>
</g>
</g>
<style id="flip-h-59bb20a2-14e1-4330-8eb7-c49066989534" data-anikit="">@keyframes flip-h-59bb20a2-14e1-4330-8eb7-c49066989534
{
  0% {
    animation-timing-function: cubic-bezier(0.1909,0.4373,0.4509,0.7454);
    transform: rotateY(0deg);
  }
  30% {
    animation-timing-function: cubic-bezier(0.128,0.2315,0.9704,0.8632);
    transform: rotateY(153.72deg);
  }
  50% {
    animation-timing-function: cubic-bezier(0.5788,0.3001,0.5613,0.6784);
    transform: rotateY(180deg);
  }
  55% {
    animation-timing-function: cubic-bezier(0.1545,0.4929,0.6089,0.9373);
    transform: rotateY(238.68deg);
  }
  100% {
    transform: rotateY(360deg);
  }
}</style></svg>